<svg xmlns="http://www.w3.org/2000/svg" version="1.1" xmlns:xlink="http://www.w3.org/1999/xlink" xmlns:svgjs="http://svgjs.dev/svgjs" width="2000" height="1247" viewBox="0 0 2000 1247"><g transform="matrix(1,0,0,1,-1.2121212121212466,0.504858299595071)"><svg viewBox="0 0 396 247" data-background-color="#dedede" preserveAspectRatio="xMidYMid meet" height="1247" width="2000" xmlns="http://www.w3.org/2000/svg" xmlns:xlink="http://www.w3.org/1999/xlink"><g id="tight-bounds" transform="matrix(1,0,0,1,0.2400000000000091,-0.09999999999999432)"><svg viewBox="0 0 395.52 247.2" height="247.2" width="395.52"><g><svg></svg></g><g><svg viewBox="0 0 395.52 247.2" height="247.2" width="395.52"><g transform="matrix(1,0,0,1,75.54432,101.23733488134928)"><svg viewBox="0 0 244.43135999999998 44.72533023730143" height="44.72533023730143" width="244.43135999999998"><g><svg viewBox="0 0 244.43135999999998 44.72533023730143" height="44.72533023730143" width="244.43135999999998"><g><svg viewBox="0 0 244.43135999999998 44.72533023730143" height="44.72533023730143" width="244.43135999999998"><g><svg viewBox="0 0 244.43135999999998 44.72533023730143" height="44.72533023730143" width="244.43135999999998"><g><svg viewBox="0 0 244.43135999999998 44.72533023730143" height="44.72533023730143" width="244.43135999999998"><g><svg viewBox="0 0 244.43135999999998 44.72533023730143" height="44.72533023730143" width="244.43135999999998"><g transform="matrix(1,0,0,1,0,0)"><svg width="244.43135999999998" viewBox="0.20000000298023224 -36.5 254.9300079345703 46.650001525878906" height="44.72533023730143" data-palette-color="#374151"><path d="M2.8 0L0.2 0 12.65-32.2Q13.35-34.05 14.33-34.85 15.3-35.65 16.7-35.65L16.7-35.65Q18.1-35.65 19.1-34.88 20.1-34.1 20.75-32.25L20.75-32.25 33.3 0 30.65 0 26.8-9.9 6.6-9.9 2.8 0ZM14.8-31.4L7.4-12.05 26.05-12.05 18.6-31.4Q18.25-32.35 17.85-32.9 17.45-33.45 16.7-33.45L16.7-33.45Q15.95-33.45 15.58-32.93 15.2-32.4 14.8-31.4L14.8-31.4ZM39.9 0L37.55 0 37.55-36.5 39.9-36.5 39.9 0ZM64.25 10.15L51.9 10.15 51.9 8.05 63.75 8.05Q66.75 8.05 68.35 6.35 69.95 4.65 69.95 1.65L69.95 1.65 69.95-6.05 69.8-6.05Q69.05-4.5 67.55-2.98 66.05-1.45 63.95-0.45 61.85 0.55 59.05 0.55L59.05 0.55Q55.25 0.55 52.47-1.2 49.7-2.95 48.2-5.95 46.7-8.95 46.7-12.8L46.7-12.8Q46.7-16.55 48.22-19.55 49.75-22.55 52.62-24.3 55.5-26.05 59.45-26.05L59.45-26.05Q63.25-26.05 66.15-24.35 69.05-22.65 70.67-19.73 72.3-16.8 72.3-12.95L72.3-12.95 72.3 2.1Q72.3 5.75 70.15 7.95 68 10.15 64.25 10.15L64.25 10.15ZM59.35-1.55L59.35-1.55Q62.4-1.55 64.8-3.03 67.2-4.5 68.57-7.03 69.95-9.55 69.95-12.85L69.95-12.85Q69.95-16.05 68.62-18.55 67.3-21.05 64.92-22.5 62.55-23.95 59.4-23.95L59.4-23.95Q56.2-23.95 53.87-22.48 51.55-21 50.32-18.43 49.1-15.85 49.1-12.55L49.1-12.55Q49.1-9.5 50.32-7 51.55-4.5 53.85-3.03 56.15-1.55 59.35-1.55ZM92.09 0.65L92.09 0.65Q88.29 0.65 85.34-1.13 82.39-2.9 80.72-5.95 79.04-9 79.04-12.75L79.04-12.75Q79.04-16.5 80.72-19.55 82.39-22.6 85.34-24.38 88.29-26.15 92.09-26.15L92.09-26.15Q95.94-26.15 98.89-24.38 101.84-22.6 103.52-19.55 105.19-16.5 105.19-12.75L105.19-12.75Q105.19-9 103.52-5.95 101.84-2.9 98.89-1.13 95.94 0.65 92.09 0.65ZM92.09-1.45L92.09-1.45Q95.24-1.45 97.64-2.95 100.04-4.45 101.42-7.03 102.79-9.6 102.79-12.75L102.79-12.75Q102.79-15.95 101.42-18.5 100.04-21.05 97.64-22.55 95.24-24.05 92.09-24.05L92.09-24.05Q88.99-24.05 86.57-22.55 84.14-21.05 82.79-18.48 81.44-15.9 81.44-12.75L81.44-12.75Q81.44-9.55 82.79-7 84.14-4.45 86.57-2.95 88.99-1.45 92.09-1.45ZM114.49 0L112.04 0 112.04-34.95 114.49-34.95 114.49-18.9 136.09-18.9 136.09-34.95 138.54-34.95 138.54 0 136.09 0 136.09-16.75 114.49-16.75 114.49 0ZM158.09 0.65L158.09 0.65Q155.14 0.65 152.51-0.68 149.89-2 148.29-4.5 146.69-7 146.69-10.6L146.69-10.6 146.69-25.5 149.09-25.5 149.09-10.75Q149.09-7.75 150.39-5.65 151.69-3.55 153.74-2.5 155.79-1.45 158.04-1.45L158.04-1.45Q160.39-1.45 162.46-2.53 164.54-3.6 165.84-5.68 167.14-7.75 167.14-10.75L167.14-10.75 167.14-25.5 169.54-25.5 169.54-10.6Q169.54-7 167.94-4.5 166.34-2 163.74-0.68 161.14 0.65 158.09 0.65ZM189.29 0L176.84 0 176.84-2.1 188.74-2.1Q190.59-2.1 191.84-2.88 193.09-3.65 193.74-4.9 194.39-6.15 194.39-7.5L194.39-7.5Q194.39-8.7 193.84-9.8 193.29-10.9 192.16-11.6 191.04-12.3 189.29-12.3L189.29-12.3 183.79-12.3Q181.34-12.3 179.64-13.15 177.94-14 177.09-15.48 176.24-16.95 176.24-18.75L176.24-18.75Q176.24-20.5 177.06-22.05 177.89-23.6 179.49-24.55 181.09-25.5 183.29-25.5L183.29-25.5 194.74-25.5 194.74-23.4 183.54-23.4Q181.19-23.4 179.94-22 178.69-20.6 178.69-18.85L178.69-18.85Q178.69-17.15 179.96-15.83 181.24-14.5 183.89-14.5L183.89-14.5 188.94-14.5Q191.64-14.5 193.39-13.58 195.14-12.65 196.01-11.1 196.89-9.55 196.89-7.6L196.89-7.6Q196.89-5.7 195.94-3.98 194.99-2.25 193.31-1.13 191.64 0 189.29 0L189.29 0ZM216.58 0L211.33 0Q207.93 0 206.01-1.95 204.08-3.9 204.08-7.25L204.08-7.25 204.08-31.9 206.48-31.9 206.48-7.7Q206.48-5 207.83-3.55 209.18-2.1 211.88-2.1L211.88-2.1 216.58-2.1 216.58 0ZM216.73-23.4L199.63-23.4 199.63-25.5 216.73-25.5 216.73-23.4ZM224.93 0L222.58 0 222.58-36.5 224.93-36.5 224.93 0ZM251.98 0L246.03 0Q242.03 0 238.78-1.48 235.53-2.95 233.63-5.8 231.73-8.65 231.73-12.75L231.73-12.75Q231.73-16.3 233.18-19.35 234.63-22.4 237.3-24.25 239.98-26.1 243.63-26.1L243.63-26.1Q247.23-26.1 249.8-24.5 252.38-22.9 253.75-20.18 255.13-17.45 255.13-14.05L255.13-14.05Q255.13-13.5 255.1-12.95 255.08-12.4 254.98-11.85L254.98-11.85 234.23-11.85Q234.33-8.7 235.93-6.5 237.53-4.3 240.13-3.2 242.73-2.1 245.73-2.1L245.73-2.1 251.98-2.1 251.98 0ZM234.23-13.7L234.23-13.7 252.68-13.7Q252.73-14.7 252.55-16.05 252.38-17.4 251.83-18.78 251.28-20.15 250.25-21.35 249.23-22.55 247.58-23.3 245.93-24.05 243.53-24.05L243.53-24.05Q241.38-24.05 239.65-23.15 237.93-22.25 236.73-20.73 235.53-19.2 234.88-17.38 234.23-15.55 234.23-13.7Z" opacity="1" transform="matrix(1,0,0,1,0,0)" fill="#374151" class="undefined-text-0" data-fill-palette-color="primary" id="text-0"></path></svg></g></svg></g></svg></g></svg></g></svg></g></svg></g></svg></g><path d="M187.186 95.237L187.186 33.76 7.506 33.76 7.506 213.44 187.186 213.44 187.186 151.963 183.153 151.963 183.153 209.407 11.539 209.407 11.539 37.793 183.153 37.793 183.153 95.237Z" fill="#374151" stroke="transparent" data-fill-palette-color="primary"></path></svg></g><defs></defs></svg><rect width="395.52" height="247.2" fill="none" stroke="none" visibility="hidden"></rect></g></svg></g></svg>