<?xml version="1.0" standalone="no"?>
<!DOCTYPE svg PUBLIC "-//W3C//DTD SVG 20010904//EN"
 "http://www.w3.org/TR/2001/REC-SVG-20010904/DTD/svg10.dtd">
<svg version="1.0" xmlns="http://www.w3.org/2000/svg"
 width="101.000000pt" height="63.000000pt" viewBox="0 0 101.000000 63.000000"
 preserveAspectRatio="xMidYMid meet">

<g transform="translate(0.000000,63.000000) scale(0.100000,-0.100000)"
fill="#000000" stroke="none">
<path d="M24 315 c0 -126 2 -177 3 -112 2 65 2 168 0 230 -1 62 -3 9 -3 -118z"/>
<path d="M468 488 c5 -95 9 -104 11 -25 0 42 -2 77 -6 77 -5 0 -7 -24 -5 -52z"/>
<path d="M468 165 c-2 -41 0 -75 5 -75 4 0 7 34 7 75 0 41 -2 75 -4 75 -3 0
-6 -34 -8 -75z"/>
</g>
</svg>
